<svg xmlns="http://www.w3.org/2000/svg" width="52" height="46" viewBox="0 0 52 46">
    <g fill="none" fill-rule="evenodd" stroke-linecap="round" stroke-linejoin="round">
        <g stroke="#394562">
            <g>
                <path d="M5.453 9.143c1.132 2.036 3.699 2.77 5.734 1.64 2.545-1.415 3.462-4.624 2.049-7.169-1.767-3.182-5.78-4.328-8.961-2.56-3.975 2.208-5.408 7.223-3.2 11.2 2.762 4.97 10.982 6 16.667 6h32.5M5.453 34.834c1.132-2.037 3.699-2.77 5.734-1.64 2.545 1.414 3.462 4.623 2.049 7.168-1.767 3.182-5.78 4.328-8.961 2.561-3.975-2.21-5.408-7.224-3.2-11.2 2.762-4.97 10.982-6 16.667-6h32.5" transform="translate(-239.000000, -335.000000) translate(240.000000, 336.000000)"/>
            </g>
        </g>
    </g>
</svg>
