<svg xmlns="http://www.w3.org/2000/svg" width="31" height="35" viewBox="0 0 31 35">
    <g fill="none" fill-rule="evenodd">
        <g>
            <g>
                <path fill="#FFF" d="M23.985 24.875c-3.818-8.514-10.499-6.892-10.499-6.892v3.615c0 .498-.403.9-.9.9-.235 0-.461-.092-.63-.257L6.03 16.437c-.355-.348-.361-.918-.013-1.273l.013-.013 5.926-5.805c.355-.347.925-.341 1.273.014.165.168.257.394.257.63v2.399s10.499-.568 10.499 12.486z" transform="translate(-736.000000, -347.000000) translate(736.000000, 347.187500) translate(14.936353, 16.960503) scale(-1, 1) translate(-14.936353, -16.960503)"/>
            </g>
        </g>
    </g>
</svg>
