<svg xmlns="http://www.w3.org/2000/svg" width="63" height="90" viewBox="0 0 63 90">
    <g fill="none" fill-rule="evenodd">
        <g>
            <g>
                <path fill="#25304A" d="M23.942 32.433c19.723-1.21 38.842 2.783 38.963 27.952.12 14.52-10.165 29.525-29.767 29.525-16.093 0-27.83-10.407-28.556-27.589h18.633c.122 5.566 3.751 8.47 9.44 8.47 5.928 0 9.558-3.509 9.68-10.406-.243-5.082-2.905-7.744-7.624-9.075-8.59-2.541-22.385-.727-28.677-.606V3.514h52.757v18.392H23.942v10.527z" transform="translate(-713.000000, -165.000000) translate(713.000000, 165.000000)"/>
                <path fill="#FFF" d="M29.889 81.91c-12.125 0-20.535-6.611-22.91-17.59h8.866c1.919 5.272 6.847 8.472 13.56 8.472 8.888 0 14.513-5.87 14.679-15.32l.003-.162-.008-.163c-.23-4.842-2.372-11.142-11.26-13.65-3.47-1.025-7.923-1.532-13.556-1.532-4.04 0-8.105.259-11.372.468l-.106.007V5.514H50.54v8.392H15.693V34.75l5.306-.326c1.963-.12 3.853-.182 5.616-.182 19.577 0 27.962 6.929 28.04 23.168.056 6.699-2.48 13.12-6.957 17.636-4.454 4.49-10.612 6.864-17.81 6.864" transform="translate(-713.000000, -165.000000) translate(713.000000, 165.000000)"/>
                <path fill="#EF7B7B" d="M11.012 8.855v29.403c15.126-.604 37.147-2.904 37.39 18.877-.121 10.769-8.47 19.24-19.24 19.36-7.623.12-14.278-3.871-16.577-10.043h-1.21c2.42 6.776 9.439 11.132 17.787 11.01 11.374 0 20.329-8.953 20.329-20.327 0-21.901-21.66-21.054-37.39-19.966V9.944h35.696v-1.09H11.012zm9.68 20.57c19.723-1.21 38.842 2.54 38.964 27.71.12 14.52-10.165 29.525-29.767 29.525-6.534 0-11.133-1.331-15.126-3.51C6.898 78.673.848 70.083.727 59.07h19.239c.12 5.567 3.75 8.229 9.439 8.229 5.928 0 9.196-4.356 9.317-10.164-.848-14.4-26.137-9.923-35.938-9.68V.264H55.54v18.392H20.693v10.769z" transform="translate(-713.000000, -165.000000) translate(713.000000, 165.000000)"/>
            </g>
        </g>
    </g>
</svg>
