<svg xmlns="http://www.w3.org/2000/svg" width="36" height="36" viewBox="0 0 36 36">
    <g fill="none" fill-rule="evenodd">
        <g>
            <g transform="translate(-462.000000, -344.000000) translate(462.000000, 344.000000)">
                <circle cx="18" cy="18" r="18" fill="#6FC5AF"/>
                <g fill="#FFF">
                    <g>
                        <path d="M12 0l1 2h3.005C17.107 2 18 2.897 18 4.006v5.642c-1.657 0-3 1.344-3 3l-.001.751L14 13.4l-.176.005c-1.441.084-2.61 1.184-2.798 2.595h-9.03C.892 16 0 15.103 0 13.994V4.006C0 2.898.893 2 1.995 2H5l1-2h6zM9 4C6.239 4 4 6.239 4 9s2.239 5 5 5 5-2.239 5-5-2.239-5-5-5zm0 2c1.657 0 3 1.343 3 3s-1.343 3-3 3-3-1.343-3-3 1.343-3 3-3z" transform="translate(9.000000, 8.000000)"/>
                    </g>
                    <g fill-rule="nonzero">
                        <path d="M5 .648c.513 0 .936.386.993.884L6 1.648V4.4L9 4.4c.552 0 1 .448 1 1 0 .513-.386.936-.883.993L9 6.4l-3-.001v3.25c0 .552-.448 1-1 1-.513 0-.936-.387-.993-.884L4 9.648V6.4L1 6.4c-.552 0-1-.448-1-1 0-.513.386-.936.883-.993L1 4.4l2.999-.001L4 1.649c0-.553.448-1 1-1z" transform="translate(9.000000, 8.000000) translate(13.000000, 11.000000)"/>
                    </g>
                </g>
            </g>
        </g>
    </g>
</svg>
