<svg xmlns="http://www.w3.org/2000/svg" width="52" height="46" viewBox="0 0 52 46">
    <g fill="none" fill-rule="evenodd" stroke-linecap="round" stroke-linejoin="round">
        <g stroke="#394562">
            <g>
                <path d="M45.327 9.143c-1.131 2.036-3.698 2.77-5.734 1.64-2.545-1.415-3.462-4.624-2.048-7.169 1.766-3.182 5.778-4.328 8.96-2.56 3.976 2.208 5.409 7.223 3.199 11.2-2.761 4.97-10.981 6-16.666 6H.538M45.327 34.834c-1.131-2.037-3.698-2.77-5.734-1.64-2.545 1.414-3.462 4.623-2.048 7.168 1.766 3.182 5.778 4.328 8.96 2.561 3.976-2.21 5.409-7.224 3.199-11.2-2.761-4.97-10.981-6-16.666-6H.538" transform="translate(-314.000000, -335.000000) translate(314.000000, 336.000000)"/>
            </g>
        </g>
    </g>
</svg>
