<svg xmlns="http://www.w3.org/2000/svg" width="51" height="89" viewBox="0 0 51 89">
    <g fill="none" fill-rule="evenodd">
        <g>
            <g>
                <path fill="#25304A" d="M5.065 21.059L5.065 3.514 37.615 3.514 37.615 70.549 50.441 70.549 50.441 88.215 3.976 88.215 3.976 70.549 16.56 70.549 16.56 21.059z" transform="translate(-245.000000, -165.000000) translate(245.000000, 165.000000)"/>
                <path fill="#FFF" d="M5.727 80.215L5.727 72.549 18.311 72.549 18.311 13.059 6.816 13.059 6.816 5.514 29.366 5.514 29.366 72.549 42.192 72.549 42.192 80.215z" transform="translate(-245.000000, -165.000000) translate(245.000000, 165.000000)"/>
                <path fill="#EF7B7B" d="M24.321 8.492H9.801v.968h13.431v66.309H8.107v.968h31.581v-.968H24.321V8.492zM1.815 18.535V.264h32.55v66.309h13.431v18.393H0V66.573h13.31V18.535H1.815z" transform="translate(-245.000000, -165.000000) translate(245.000000, 165.000000)"/>
            </g>
        </g>
    </g>
</svg>
