<svg xmlns="http://www.w3.org/2000/svg" width="68" height="89" viewBox="0 0 68 89">
    <g fill="none" fill-rule="evenodd">
        <g>
            <g>
                <path fill="#25304A" d="M27.941 54.456h13.553V41.75l1.572-12.947h-.242L27.941 54.456zm32.792 33.76H40.646V72.121H3.741v-9.438l33.76-59.17h23.232v50.942h7.26V72.12h-7.26v16.095z" transform="translate(-589.000000, -165.000000) translate(589.000000, 165.000000)"/>
                <path fill="#FFF" d="M16.01 56.456h27.234V39.053l2.216-18.25h-8.765L16.01 56.456zm26.387 23.76V64.121H5.49V61.01L37.155 5.514h15.329v50.942h7.259v7.665h-7.26v16.095H42.398z" transform="translate(-589.000000, -165.000000) translate(589.000000, 165.000000)"/>
                <path fill="#EF7B7B" d="M26.023 51.206h12.222V38.5l1.572-12.947h-.242L26.021 51.206zm-13.915 8.591L40.178 9.702h6.535v50.097H12.108zm35.815 17.06V60.767H57v-.968h-9.076V8.733h-8.349L10.899 59.434v1.332h35.816v16.092h1.21zm9.56 8.109H37.398V68.871H.492v-9.438L34.252.264h23.231v50.942h7.26V68.87h-7.26v16.095z" transform="translate(-589.000000, -165.000000) translate(589.000000, 165.000000)"/>
            </g>
        </g>
    </g>
</svg>
