<svg xmlns="http://www.w3.org/2000/svg" width="222" height="223" viewBox="0 0 222 223">
    <g fill="none" fill-rule="evenodd">
        <g>
            <g>
                <path fill="#FEE7B7" d="M221.796 110.898c0 61.248-49.65 110.898-110.898 110.898C49.651 221.796 0 172.146 0 110.898 0 49.651 49.651 0 110.898 0c61.248 0 110.898 49.651 110.898 110.898" transform="translate(-224.000000, -449.000000) translate(224.000000, 449.500000)"/>
                <path stroke="#FEBE21" stroke-width="4.929" d="M110.481 165.072c29.17 0 52.815-23.646 52.815-52.815 0-29.168-23.646-52.816-52.815-52.816-29.169 0-52.814 23.648-52.814 52.816 0 29.17 23.645 52.815 52.814 52.815z" transform="translate(-224.000000, -449.000000) translate(224.000000, 449.500000)"/>
                <path stroke="#FEBE21" stroke-linecap="round" stroke-width="4.929" d="M76.298 113.154s3.261-2.256 9.603-2.256 9.602 2.256 9.602 2.256M121.371 133.965s-4.66 4.257-11.002 4.257c-6.343 0-11.004-4.257-11.004-4.257M124.206 113.154s3.26-2.256 9.603-2.256c6.342 0 9.602 2.256 9.602 2.256M109.216 61.216s-6.988 8.462-3.602 13.204c3.387 4.742 12.005 6 15.605 3.6" transform="translate(-224.000000, -449.000000) translate(224.000000, 449.500000)"/>
            </g>
        </g>
    </g>
</svg>
