<svg xmlns="http://www.w3.org/2000/svg" width="70" height="91" viewBox="0 0 70 91">
    <g fill="none" fill-rule="evenodd">
        <g>
            <g>
                <path fill="#25304A" d="M47.296 61.385c0-5.687-3.388-10.648-10.527-10.648-7.26 0-10.891 4.961-10.891 10.648 0 6.171 4.356 10.77 10.89 10.77 6.777 0 10.528-4.599 10.528-10.77zm9.922-57.598L39.31 34.281c17.908-1.332 29.766 9.558 29.766 27.104 0 19.844-14.278 29.161-32.307 29.161-18.272 0-32.55-9.317-32.55-29.16 0-5.81 1.21-11.617 4.477-16.579l24.443-41.02h24.079z" transform="translate(-832.000000, -164.000000) translate(832.000000, 164.000000)"/>
                <path fill="#FFF" d="M33.519 42.737c-9.356 0-15.891 6.435-15.891 15.648 0 9.137 6.683 15.769 15.89 15.769 9.144 0 15.528-6.484 15.528-15.77 0-9.212-6.384-15.647-15.527-15.647m0 39.81c-8.283 0-27.55-2.355-27.55-24.162 0-5.494 1.23-10.146 3.654-13.828l.119-.19L32.73 5.787h12.503L26.917 36.975l9.514-.707c.856-.063 1.709-.095 2.536-.095 13.484 0 21.86 8.51 21.86 22.213 0 7.265-2.662 24.162-27.308 24.162" transform="translate(-832.000000, -164.000000) translate(832.000000, 164.000000)"/>
                <path fill="#EF7B7B" d="M44.046 58.135c0-6.776-3.388-10.648-10.527-10.648-7.26 0-10.891 3.872-10.891 10.648 0 6.896 3.63 10.77 10.89 10.77 7.14 0 10.528-3.874 10.528-10.77zm10.164 0c0 12.221-9.075 18.997-20.691 18.997-11.86 0-20.934-6.776-20.934-18.997 0-11.979 9.075-18.756 20.934-18.756 11.616 0 20.69 6.777 20.69 18.756zM33.519 38.29c-5.688 0-11.011 1.574-14.763 4.357l-.241-.12C25.049 31.15 31.945 19.897 38.48 8.402h-1.21L14.4 47.123c-2.057 3.63-3.025 6.777-3.025 11.012 0 12.705 9.68 20.207 22.144 20.207 12.1 0 21.9-7.502 21.9-20.207 0-12.706-9.8-19.845-21.9-19.845zM53.968.537L36.06 31.031c17.908-1.332 29.766 9.195 29.766 27.104 0 20.207-13.915 29.161-32.307 29.161-18.635 0-32.55-8.954-32.55-29.16 0-5.81 1.21-11.617 4.477-16.579L29.889.537h24.079z" transform="translate(-832.000000, -164.000000) translate(832.000000, 164.000000)"/>
            </g>
        </g>
    </g>
</svg>
