<svg xmlns="http://www.w3.org/2000/svg" width="66" height="89" viewBox="0 0 66 89">
    <g fill="none" fill-rule="evenodd">
        <g>
            <g>
                <path fill="#25304A" d="M65.683 6.781L31.44 88.216 9.175 88.216 37.126 22.875 3.851 22.875 3.851 3.514 65.683 3.514z" transform="translate(-958.000000, -165.000000) translate(958.000000, 165.000000)"/>
                <path fill="#FFF" d="M13.502 80.215L41.453 14.874 5.601 14.874 5.601 5.514 56.279 5.514 24.868 80.215z" transform="translate(-958.000000, -165.000000) translate(958.000000, 165.000000)"/>
                <path fill="#EF7B7B" d="M20.808 77.1L49.244 9.339H7.74v1.089h39.688L19.477 77.1h1.33zM62.433 3.531L28.19 84.965H5.925L33.15 19.624H.6V.264h61.832v3.267z" transform="translate(-958.000000, -165.000000) translate(958.000000, 165.000000)"/>
            </g>
        </g>
    </g>
</svg>
