<svg xmlns="http://www.w3.org/2000/svg" width="63" height="91" viewBox="0 0 63 91">
    <g fill="none" fill-rule="evenodd">
        <g>
            <g>
                <path fill="#25304A" d="M32.078 23.543c-4.84 0-8.349 2.3-8.349 8.228H5.337C5.095 13.5 17.437 4.545 32.441 4.183c24.322-.606 34.97 23.473 22.386 42.955L37.765 70.855h25.168v19.36H3.4v-3.267l31.824-46.586c4.235-5.687 7.502-16.819-3.146-16.819z" transform="translate(-352.000000, -163.000000) translate(352.000000, 163.000000)"/>
                <path fill="#FFF" d="M7.39 82.215l28.66-41.954c2.949-4.003 6.99-12.384 3.738-18.859-1.098-2.189-3.983-5.859-10.96-5.859-6.387 0-10.897 3.051-12.6 8.228H7.398C9.733 7.975 24.492 6.298 29.313 6.182c.262-.007.519-.01.774-.01 8.637 0 15.665 3.808 19.28 10.447 3.943 7.241 3.204 16.697-1.924 24.704L24.76 72.855h29.924v9.36H7.39z" transform="translate(-352.000000, -163.000000) translate(352.000000, 163.000000)"/>
                <path fill="#EF7B7B" d="M28.95 10.008c-7.745-.12-14.279 3.146-17.063 10.77h1.332c2.662-6.898 8.833-9.923 15.73-9.68 17.908.361 21.538 15.85 12.584 28.918L15.638 77.89h34.85v-1.21H17.695l24.926-36.059c9.56-13.794 5.203-30.372-13.673-30.613m-.12 10.285c-4.84 0-8.35 2.3-8.35 8.228H2.087C1.845 10.25 14.187 1.295 29.191.933c24.321-.606 34.97 23.473 22.386 42.955L34.515 67.605h25.168v19.36H.15v-3.267l31.824-46.586c4.235-5.687 7.502-16.819-3.146-16.819" transform="translate(-352.000000, -163.000000) translate(352.000000, 163.000000)"/>
            </g>
        </g>
    </g>
</svg>
