<svg xmlns="http://www.w3.org/2000/svg" width="69" height="91" viewBox="0 0 69 91">
    <g fill="none" fill-rule="evenodd">
        <g>
            <g>
                <path fill="#25304A" d="M24.811 32.344c0 6.171 4.236 10.648 10.648 10.648 7.018 0 10.65-4.114 10.65-10.648 0-5.929-3.994-10.527-10.65-10.527-6.413 0-10.648 4.598-10.648 10.527zM14.768 90.062l18.03-30.614C14.889 60.78 3.273 48.438 3.273 32.344c0-19.965 13.553-29.04 32.186-29.04 18.513 0 32.55 9.075 32.55 29.04 0 5.81-1.09 11.737-4.477 16.698l-24.684 41.02h-24.08z" transform="translate(-1204.000000, -164.000000) translate(1204.000000, 164.000000)"/>
                <path fill="#FFF" d="M32.21 13.817c-8.921 0-15.648 6.676-15.648 15.527 0 9.068 6.581 15.649 15.648 15.649 9.506 0 15.648-6.143 15.648-15.65 0-8.996-6.581-15.526-15.648-15.526zM20.266 82.062l18.438-31.307-9.527.708c-.755.056-1.51.084-2.245.084-6.51 0-12.041-2.185-15.996-6.321-3.813-3.986-5.913-9.627-5.913-15.882 0-10.966 4.717-24.04 27.187-24.04 10.289 0 27.55 3.123 27.55 24.04 0 5.785-1.18 10.325-3.607 13.879l-.081.118-23.3 38.72H20.266z" transform="translate(-1204.000000, -164.000000) translate(1204.000000, 164.000000)"/>
                <path fill="#EF7B7B" d="M21.561 29.094c0 6.897 3.51 10.648 10.648 10.648 7.381 0 10.65-3.75 10.65-10.648 0-6.655-3.269-10.527-10.65-10.527-7.139 0-10.648 3.872-10.648 10.527zm-10.284 0c0-11.979 9.316-18.876 20.933-18.876 11.737 0 20.813 6.897 20.813 18.876 0 12.101-9.076 18.876-20.814 18.876-11.616 0-20.933-6.775-20.933-18.876zM32.21 49.18c5.566 0 10.89-1.815 14.883-4.598l.12.121c-6.654 11.374-13.43 22.991-20.085 34.365h1.453l22.627-38.962c2.056-3.51 3.025-6.656 3.025-11.012 0-12.584-9.56-19.965-22.023-19.965-12.343 0-21.901 7.381-21.901 19.965 0 12.705 9.68 20.086 21.9 20.086zM11.517 86.812l18.03-30.614C11.639 57.53.023 47.002.023 29.094.023 9.13 13.575.054 32.209.054c18.513 0 32.55 9.075 32.55 29.04 0 5.81-1.09 11.737-4.477 16.698l-24.684 41.02h-24.08z" transform="translate(-1204.000000, -164.000000) translate(1204.000000, 164.000000)"/>
            </g>
        </g>
    </g>
</svg>
