<svg xmlns="http://www.w3.org/2000/svg" width="122" height="92" viewBox="0 0 122 92">
    <g fill="none" fill-rule="evenodd">
        <g>
            <g>
                <g>
                    <path fill="#25304A" d="M5.065 21.059L5.065 3.514 37.615 3.514 37.615 70.549 50.441 70.549 50.441 88.215 3.976 88.215 3.976 70.549 16.56 70.549 16.56 21.059z" transform="translate(-1452.000000, -163.000000) translate(1452.000000, 163.000000) translate(0.000000, 2.000000)"/>
                    <path fill="#FFF" d="M5.727 80.215L5.727 72.549 18.311 72.549 18.311 13.059 6.816 13.059 6.816 5.514 29.366 5.514 29.366 72.549 42.192 72.549 42.192 80.215z" transform="translate(-1452.000000, -163.000000) translate(1452.000000, 163.000000) translate(0.000000, 2.000000)"/>
                    <path fill="#EF7B7B" d="M24.321 8.492H9.801v.968h13.431v66.309H8.107v.968h31.581v-.968H24.321V8.492zM1.815 18.535V.264h32.55v66.309h13.431v18.393H0V66.573h13.31V18.535H1.815z" transform="translate(-1452.000000, -163.000000) translate(1452.000000, 163.000000) translate(0.000000, 2.000000)"/>
                </g>
                <g>
                    <path fill="#25304A" d="M46.273 62.264V33.465c0-6.655-4.962-10.164-11.375-10.164-6.17 0-11.01 3.51-11.01 10.164v28.8c0 6.895 4.84 10.405 11.01 10.405 6.413 0 11.375-3.51 11.375-10.406m20.45-29.162v29.645c0 18.514-14.279 29.163-31.825 29.163-17.182 0-31.58-10.649-31.58-29.163V33.102c0-18.513 14.398-29.16 31.58-29.16 17.546 0 31.824 10.647 31.824 29.16" transform="translate(-1452.000000, -163.000000) translate(1452.000000, 163.000000) translate(55.000000, 0.000000)"/>
                    <path fill="#FFF" d="M31.648 15.301c-9.427 0-16.01 6.235-16.01 15.164v28.8c0 9.214 6.434 15.405 16.01 15.405 9.794 0 16.375-6.19 16.375-15.406V30.465c0-8.929-6.733-15.164-16.375-15.164m0 68.608c-13.23 0-26.58-7.47-26.58-24.162V30.102c0-16.69 13.35-24.16 26.58-24.16 13.352 0 26.824 7.47 26.824 24.16v29.645C58.472 76.44 45 83.91 31.648 83.91" transform="translate(-1452.000000, -163.000000) translate(1452.000000, 163.000000) translate(55.000000, 0.000000)"/>
                    <path fill="#EF7B7B" d="M43.023 59.014V30.215c0-6.655-4.962-10.164-11.375-10.164-6.17 0-11.01 3.51-11.01 10.164v28.8c0 6.895 4.84 10.405 11.01 10.405 6.413 0 11.375-3.51 11.375-10.406m9.438-28.799v28.8c0 12.341-9.197 19.48-20.813 19.48-11.253 0-20.69-7.139-20.69-19.48v-28.8c0-12.463 9.437-19.36 20.69-19.36 11.616 0 20.813 6.897 20.813 19.36m1.452 28.8v-28.8c0-13.068-10.043-20.449-22.265-20.449-11.857 0-22.022 7.381-22.022 20.45v28.798c0 12.947 10.165 20.57 22.022 20.57 12.222 0 22.265-7.623 22.265-20.57m9.56-29.162v29.645c0 18.514-14.279 29.163-31.825 29.163-17.182 0-31.58-10.649-31.58-29.163V29.852C.067 11.34 14.465.692 31.647.692c17.546 0 31.824 10.647 31.824 29.16" transform="translate(-1452.000000, -163.000000) translate(1452.000000, 163.000000) translate(55.000000, 0.000000)"/>
                </g>
            </g>
        </g>
    </g>
</svg>
