<svg xmlns="http://www.w3.org/2000/svg" width="63" height="90" viewBox="0 0 63 90">
    <g fill="none" fill-rule="evenodd">
        <g>
            <g>
                <path fill="#25304A" d="M22.915 62.32c.121 5.567 3.751 8.35 9.56 8.35 5.928 0 9.196-4.477 9.317-10.164-.121-12.221-12.222-11.737-21.418-11.374v-2.904l11.253-23.474H7.185V3.514h53.846V6.66L45.422 35.217c13.431 3.387 17.303 14.278 17.303 25.168.121 14.399-10.164 29.525-29.767 29.525-6.413 0-11.011-1.331-15.125-3.63C9.847 81.802 3.918 73.212 3.918 62.32h18.997z" transform="translate(-471.000000, -165.000000) translate(471.000000, 165.000000)"/>
                <path fill="#FFF" d="M29.708 81.91c-5.066 0-8.979-.924-12.687-2.995-5.635-3.16-9.472-8.421-10.82-14.594h9.333c1.903 5.252 6.813 8.35 13.691 8.35 8.24 0 14.128-6.193 14.316-15.06l.001-.155c-.105-10.523-6.77-16.047-19.815-16.435l12.591-26.267H8.935v-9.24h42.134l-16.382 29.97 6.262 1.58c9.102 2.296 13.526 8.944 13.526 20.322.055 6.696-2.491 13.113-6.987 17.646-4.461 4.5-10.609 6.878-17.78 6.878" transform="translate(-471.000000, -165.000000) translate(471.000000, 165.000000)"/>
                <path fill="#EF7B7B" d="M12.042 10.307h30.613L28.619 37.654c11.737 0 19.482 6.292 19.724 19.601-.242 10.65-8.47 19.12-19.239 19.24-7.745 0-14.4-3.75-16.82-9.922h-1.21c2.662 6.655 9.559 11.011 17.908 11.011 11.496-.12 20.207-9.075 20.45-20.329 0-12.099-7.623-20.449-19.24-20.449l14.4-27.467h-32.55v.968zm7.623 48.764c.121 5.566 3.751 8.35 9.56 8.35 5.928 0 9.196-4.478 9.317-10.166-.121-12.22-12.222-11.736-21.418-11.374v-2.903l11.253-23.475H3.935V.264h53.846V3.41L42.172 31.966c13.431 3.388 17.303 14.28 17.303 25.17.121 14.398-10.164 29.524-29.767 29.524-6.413 0-11.011-1.332-15.125-3.63C6.597 78.552.668 69.961.668 59.071h18.997z" transform="translate(-471.000000, -165.000000) translate(471.000000, 165.000000)"/>
            </g>
        </g>
    </g>
</svg>
