<svg xmlns="http://www.w3.org/2000/svg" width="222" height="222" viewBox="0 0 222 222">
    <g fill="none" fill-rule="evenodd">
        <g>
            <g>
                <path fill="#B9E5EF" d="M220.913 110.456c0 61.003-49.454 110.457-110.457 110.457C49.453 220.913 0 171.459 0 110.456 0 49.454 49.453 0 110.456 0s110.457 49.454 110.457 110.456" transform="translate(-708.000000, -448.000000) translate(708.441914, 448.500000)"/>
                <path stroke="#8BD3E4" stroke-width="4.929" d="M110.456 163.688c29.053 0 52.604-23.552 52.604-52.604 0-29.053-23.55-52.606-52.604-52.606-29.052 0-52.604 23.553-52.604 52.606 0 29.052 23.552 52.604 52.604 52.604z" transform="translate(-708.000000, -448.000000) translate(708.441914, 448.500000)"/>
                <path stroke="#8BD3E4" stroke-linecap="round" stroke-width="4.929" d="M75.785 112.279s3.248-2.247 9.565-2.247c6.317 0 9.564 2.247 9.564 2.247M121.416 133.002s-4.643 4.24-10.96 4.24c-6.316 0-10.96-4.24-10.96-4.24M123.608 112.279s3.247-2.247 9.563-2.247c6.318 0 9.565 2.247 9.565 2.247M109.313 60.87s-6.96 8.428-3.587 13.152c3.374 4.722 11.956 5.977 15.543 3.585" transform="translate(-708.000000, -448.000000) translate(708.441914, 448.500000)"/>
            </g>
        </g>
    </g>
</svg>
