<svg xmlns="http://www.w3.org/2000/svg" width="118" height="91" viewBox="0 0 118 91">
    <g fill="none" fill-rule="evenodd">
        <g>
            <g>
                <g>
                    <path fill="#25304A" d="M32.078 23.543c-4.84 0-8.349 2.3-8.349 8.228H5.337C5.095 13.5 17.437 4.545 32.441 4.183c24.322-.606 34.97 23.473 22.386 42.955L37.765 70.855h25.168v19.36H3.4v-3.267l31.824-46.586c4.235-5.687 7.502-16.819-3.146-16.819z" transform="translate(-1792.000000, -163.000000) translate(1792.000000, 163.000000) translate(55.000000, 0.000000)"/>
                    <path fill="#FFF" d="M7.39 82.215l28.66-41.954c2.949-4.003 6.99-12.384 3.738-18.859-1.098-2.189-3.983-5.859-10.96-5.859-6.387 0-10.897 3.051-12.6 8.228H7.398C9.733 7.975 24.492 6.298 29.313 6.182c.262-.007.519-.01.774-.01 8.637 0 15.665 3.808 19.28 10.447 3.943 7.241 3.204 16.697-1.924 24.704L24.76 72.855h29.924v9.36H7.39z" transform="translate(-1792.000000, -163.000000) translate(1792.000000, 163.000000) translate(55.000000, 0.000000)"/>
                    <path fill="#EF7B7B" d="M28.95 10.008c-7.745-.12-14.279 3.146-17.063 10.77h1.332c2.662-6.898 8.833-9.923 15.73-9.68 17.908.361 21.538 15.85 12.584 28.918L15.638 77.89h34.85v-1.21H17.695l24.926-36.059c9.56-13.794 5.203-30.372-13.673-30.613m-.12 10.285c-4.84 0-8.35 2.3-8.35 8.228H2.087C1.845 10.25 14.187 1.295 29.191.933c24.321-.606 34.97 23.473 22.386 42.955L34.515 67.605h25.168v19.36H.15v-3.267l31.824-46.586c4.235-5.687 7.502-16.819-3.146-16.819" transform="translate(-1792.000000, -163.000000) translate(1792.000000, 163.000000) translate(55.000000, 0.000000)"/>
                </g>
                <g>
                    <path fill="#25304A" d="M5.065 21.059L5.065 3.514 37.615 3.514 37.615 70.549 50.441 70.549 50.441 88.215 3.976 88.215 3.976 70.549 16.56 70.549 16.56 21.059z" transform="translate(-1792.000000, -163.000000) translate(1792.000000, 163.000000) translate(0.000000, 2.000000)"/>
                    <path fill="#FFF" d="M5.727 80.215L5.727 72.549 18.311 72.549 18.311 13.059 6.816 13.059 6.816 5.514 29.366 5.514 29.366 72.549 42.192 72.549 42.192 80.215z" transform="translate(-1792.000000, -163.000000) translate(1792.000000, 163.000000) translate(0.000000, 2.000000)"/>
                    <path fill="#EF7B7B" d="M24.321 8.492H9.801v.968h13.431v66.309H8.107v.968h31.581v-.968H24.321V8.492zM1.815 18.535V.264h32.55v66.309h13.431v18.393H0V66.573h13.31V18.535H1.815z" transform="translate(-1792.000000, -163.000000) translate(1792.000000, 163.000000) translate(0.000000, 2.000000)"/>
                </g>
            </g>
        </g>
    </g>
</svg>
