<svg xmlns="http://www.w3.org/2000/svg" width="26" height="21" viewBox="0 0 26 21">
    <g fill="none" fill-rule="evenodd">
        <g fill="#25304A">
            <g>
                <path d="M4.69 9.125l6.743-6.846c.461-.468.46-1.22-.003-1.687l-.234-.236c-.467-.47-1.227-.473-1.697-.007l-.01.01-9.16 9.3c-.46.467-.46 1.217 0 1.684l9.157 9.296c.465.472 1.225.478 1.697.013l.013-.013.227-.23c.46-.467.46-1.216 0-1.684L4.69 11.877H24.8c.663 0 1.2-.538 1.2-1.2v-.352c0-.663-.537-1.2-1.2-1.2H4.69z" transform="translate(-677.000000, -351.000000) translate(677.000000, 351.000000)"/>
            </g>
        </g>
    </g>
</svg>
