<svg xmlns="http://www.w3.org/2000/svg" xmlns:xlink="http://www.w3.org/1999/xlink" width="57" height="20" viewBox="0 0 57 20">
    <defs>
        <path id="mo2wfnya3a" d="M42.919 2.08c0 .778.64 1.41 1.428 1.41.79 0 1.431-.632 1.431-1.41 0-.778-.64-1.41-1.431-1.41-.789 0-1.428.632-1.428 1.41zm6.685-.47v3.895h-1.932v.942h1.932v8.878c0 2.666 1.068 4.13 3.529 4.13 1.735 0 2.597-.785 3.09-1.457.028-.036.04-.081.04-.129 0-.162-.17-.27-.314-.197-.381.196-.878.363-1.625.363-1.678 0-1.936-1.377-1.936-3.067V6.447h3.876v-.942h-3.876V1.61h-2.784zM31.582 7.463c-.031.038-.047.084-.047.132 0 .163.174.26.312.178.829-.495 1.648-.771 2.568-.771 1.942 0 2.783 1.033 2.783 2.821v9.372h2.817V9.308c0-2.47-1.36-4.063-3.949-4.063-1.782 0-3.534 1.068-4.484 2.218zm-10.75-2.215c-2.495.034-5.244 1.165-5.291 2.967-.021.807.536 1.497 1.332 1.621.988.154 1.84-.61 1.84-1.573 0-.642-.38-1.196-.925-1.448-.166-.077-.141-.324.038-.363.642-.143 1.406-.174 2.204-.084 1.325.146 2.322 1.287 2.322 2.627v10.199h2.814V8.854c0-2.569-1.715-3.609-4.174-3.609l-.16.003zM3.627 7.463c-.033.038-.048.084-.048.132 0 .163.174.26.313.178.829-.495 1.646-.771 2.566-.771 1.943 0 2.785 1.033 2.785 2.821v9.372h2.815V9.308c0-2.47-1.36-4.063-3.948-4.063-1.783 0-3.534 1.068-4.483 2.218zm39.325 11.73h2.784V5.506h-2.784v13.689zm-14.977.002h2.815V5.505h-2.815v13.69zm-27.956 0h2.815V5.505H.019v13.69zm21.247-7.589c-1.659.409-3.581.892-4.256 1.168-1.132.487-2.491 1.348-2.491 3.364 0 1.626 1.036 3.317 3.527 3.317 1.808 0 2.89-1.039 3.467-1.84.04-.054.046-.125.021-.188-.048-.118-.196-.157-.298-.08-.453.346-1.064.688-1.96.688-1.553 0-2.039-.986-2.039-2.353 0-1.001.638-1.834 1.124-2.16.713-.435 1.92-1.102 3.029-1.5.108-.037.176-.149.144-.267-.026-.096-.117-.156-.213-.156-.019 0-.037.003-.055.007z"/>
        <path id="1szvgjm7mc" d="M42.919 2.08c0 .778.64 1.41 1.428 1.41.79 0 1.431-.632 1.431-1.41 0-.778-.64-1.41-1.431-1.41-.789 0-1.428.632-1.428 1.41zm6.685-.47v3.895h-1.932v.942h1.932v8.878c0 2.666 1.068 4.13 3.529 4.13 1.735 0 2.597-.785 3.09-1.457.028-.036.04-.081.04-.129 0-.162-.17-.27-.314-.197-.381.196-.878.363-1.625.363-1.678 0-1.936-1.377-1.936-3.067V6.447h3.876v-.942h-3.876V1.61h-2.784zM31.582 7.463c-.031.038-.047.084-.047.132 0 .163.174.26.312.178.829-.495 1.648-.771 2.568-.771 1.942 0 2.783 1.033 2.783 2.821v9.372h2.817V9.308c0-2.47-1.36-4.063-3.949-4.063-1.782 0-3.534 1.068-4.484 2.218zm-10.75-2.215c-2.495.034-5.244 1.165-5.291 2.967-.021.807.536 1.497 1.332 1.621.988.154 1.84-.61 1.84-1.573 0-.642-.38-1.196-.925-1.448-.166-.077-.141-.324.038-.363.642-.143 1.406-.174 2.204-.084 1.325.146 2.322 1.287 2.322 2.627v10.199h2.814V8.854c0-2.569-1.715-3.609-4.174-3.609l-.16.003zM3.627 7.463c-.033.038-.048.084-.048.132 0 .163.174.26.313.178.829-.495 1.646-.771 2.566-.771 1.943 0 2.785 1.033 2.785 2.821v9.372h2.815V9.308c0-2.47-1.36-4.063-3.948-4.063-1.783 0-3.534 1.068-4.483 2.218zm39.325 11.73h2.784V5.506h-2.784v13.689zm-14.977.002h2.815V5.505h-2.815v13.69zm-27.956 0h2.815V5.505H.019v13.69zm21.247-7.589c-1.659.409-3.581.892-4.256 1.168-1.132.487-2.491 1.348-2.491 3.364 0 1.626 1.036 3.317 3.527 3.317 1.808 0 2.89-1.039 3.467-1.84.04-.054.046-.125.021-.188-.048-.118-.196-.157-.298-.08-.453.346-1.064.688-1.96.688-1.553 0-2.039-.986-2.039-2.353 0-1.001.638-1.834 1.124-2.16.713-.435 1.92-1.102 3.029-1.5.108-.037.176-.149.144-.267-.027-.096-.117-.156-.213-.156-.019 0-.037.003-.055.007z"/>
    </defs>
    <g fill="none" fill-rule="evenodd">
        <g>
            <g>
                <path fill="#394562" d="M37.018 10.258c0-1.81-.838-2.854-2.772-2.854-.916 0-1.73.279-2.556.78-.137.083-.311-.016-.311-.18 0-.049.016-.096.046-.134.946-1.162 2.69-2.244 4.465-2.244 2.578 0 3.93 1.612 3.93 4.111v10h-2.802v-9.48zm-9.184 9.479h2.803V5.889h-2.803v13.848zm-18.65-9.48c0-1.808-.838-2.853-2.772-2.853-.916 0-1.73.279-2.556.78-.138.083-.312-.016-.312-.18 0-.049.017-.096.048-.134.946-1.162 2.69-2.244 4.464-2.244 2.578 0 3.93 1.612 3.93 4.111v10H9.185v-9.48zM0 19.738h2.803V5.889H0v13.848zm42.747 0h2.77V5.888h-2.77v13.847zM44.135 3.85c-.785 0-1.423-.639-1.423-1.425 0-.787.638-1.425 1.423-1.425.787 0 1.424.638 1.424 1.425 0 .786-.637 1.425-1.424 1.425zm5.234 11.972v-8.98h-1.925V5.89h1.925V1.95h2.771v3.94H56v.954h-3.86v8.618c0 1.71.257 3.103 1.928 3.103.743 0 1.238-.168 1.618-.367.144-.075.314.034.314.2 0 .047-.014.093-.041.13-.492.68-1.349 1.473-3.077 1.473-2.449 0-3.513-1.48-3.513-4.178zM21.422 17.95c.025.063.018.135-.021.19-.575.809-1.652 1.86-3.452 1.86-2.482 0-3.512-1.711-3.512-3.355 0-2.04 1.352-2.91 2.481-3.403.67-.28 2.585-.767 4.236-1.182.114-.028.236.035.268.151.031.12-.036.232-.144.27-1.105.403-2.307 1.078-3.016 1.52-.483.328-1.119 1.17-1.119 2.183 0 1.382.484 2.38 2.03 2.38.892 0 1.501-.347 1.952-.695.102-.078.248-.04.297.08zm-.54-12.324c2.449 0 4.156 1.052 4.156 3.651v10.46h-2.803V9.42c0-1.356-.991-2.51-2.312-2.658-.794-.089-1.554-.06-2.193.085-.178.04-.203.29-.038.368.543.254.92.814.92 1.464 0 .975-.848 1.747-1.832 1.592-.792-.126-1.347-.823-1.325-1.641.047-1.822 2.783-2.966 5.268-3 .053-.001.106-.004.158-.004z" transform="translate(-587.000000, -348.000000) translate(587.000000, 348.000000)"/>
                <g transform="translate(-587.000000, -348.000000) translate(587.000000, 348.000000)">
                    <mask id="xlc7yuut4b" fill="#fff">
                        <use xlink:href="#mo2wfnya3a"/>
                    </mask>
                    <path fill="#394562" d="M-392.753 3623.077L1580.637 3623.077 1580.637 -1918.068 -392.753 -1918.068z" mask="url(#xlc7yuut4b)"/>
                </g>
                <g transform="translate(-587.000000, -348.000000) translate(587.000000, 348.000000)">
                    <mask id="evv0zs0sjd" fill="#fff">
                        <use xlink:href="#1szvgjm7mc"/>
                    </mask>
                    <path fill="#394562" d="M-4.749 24.15L61.031 24.15 61.031 -4.025 -4.749 -4.025z" mask="url(#evv0zs0sjd)"/>
                </g>
            </g>
        </g>
    </g>
</svg>
